<svg id="visual" viewBox="0 0 900 600" width="900" height="600" xmlns="http://www.w3.org/2000/svg" xmlns:xlink="http://www.w3.org/1999/xlink" version="1.1"><rect x="0" y="0" width="900" height="600" fill="#252151"></rect><path d="M0 446L8.3 448.8C16.7 451.7 33.3 457.3 50 457C66.7 456.7 83.3 450.3 100 446.7C116.7 443 133.3 442 150 440.5C166.7 439 183.3 437 200 439C216.7 441 233.3 447 250 449C266.7 451 283.3 449 300 446.5C316.7 444 333.3 441 350 442.3C366.7 443.7 383.3 449.3 400 453.3C416.7 457.3 433.3 459.7 450 457.3C466.7 455 483.3 448 500 448C516.7 448 533.3 455 550 456.3C566.7 457.7 583.3 453.3 600 452.7C616.7 452 633.3 455 650 454.8C666.7 454.7 683.3 451.3 700 451.7C716.7 452 733.3 456 750 454.2C766.7 452.3 783.3 444.7 800 441.8C816.7 439 833.3 441 850 444.5C866.7 448 883.3 453 891.7 455.5L900 458L900 601L891.7 601C883.3 601 866.7 601 850 601C833.3 601 816.7 601 800 601C783.3 601 766.7 601 750 601C733.3 601 716.7 601 700 601C683.3 601 666.7 601 650 601C633.3 601 616.7 601 600 601C583.3 601 566.7 601 550 601C533.3 601 516.7 601 500 601C483.3 601 466.7 601 450 601C433.3 601 416.7 601 400 601C383.3 601 366.7 601 350 601C333.3 601 316.7 601 300 601C283.3 601 266.7 601 250 601C233.3 601 216.7 601 200 601C183.3 601 166.7 601 150 601C133.3 601 116.7 601 100 601C83.3 601 66.7 601 50 601C33.3 601 16.7 601 8.3 601L0 601Z" fill="#c64937" stroke-linecap="round" stroke-linejoin="miter"></path></svg>